<svg width="44" height="44" viewBox="0 0 44 44" fill="none" xmlns="http://www.w3.org/2000/svg">
<path d="M3.66992 22.0037C3.67206 31.0225 10.2303 38.7017 19.1378 40.1152V27.302H14.4866V22.0037H19.1433V17.9703C18.9351 16.0592 19.5879 14.1544 20.9246 12.7727C22.2613 11.391 24.1434 10.6755 26.0604 10.8203C27.4364 10.8426 28.8089 10.9651 30.1671 11.187V15.6952H27.8498C27.052 15.5907 26.2499 15.8542 25.6695 16.4114C25.0891 16.9686 24.7932 17.7593 24.8651 18.5607V22.0037H29.9453L29.1331 27.3038H24.8651V40.1152C34.4983 38.5928 41.2534 29.7949 40.2367 20.0953C39.22 10.3957 30.7873 3.18987 21.0478 3.69816C11.3083 4.20645 3.67147 12.2509 3.66992 22.0037Z" fill="white"/>
</svg>
