<svg width="46" height="46" viewBox="0 0 46 46" fill="none" xmlns="http://www.w3.org/2000/svg">
<path d="M23.0039 40.3283C18.2889 40.3283 17.7331 40.3034 15.8931 40.2229C14.4582 40.1757 13.0419 39.884 11.7052 39.3604C9.39234 38.4603 7.56351 36.6308 6.66432 34.3176C6.16083 32.976 5.88926 31.5585 5.86124 30.1259C5.75391 28.2897 5.75391 27.6879 5.75391 23.0093C5.75391 18.2809 5.77882 17.7289 5.86124 15.8984C5.88987 14.4677 6.16143 13.0522 6.66432 11.7124C7.56253 9.39621 9.39433 7.56511 11.7109 6.66778C13.05 6.16217 14.4658 5.88989 15.8969 5.86278C17.7273 5.75928 18.3292 5.75928 23.0039 5.75928C27.7572 5.75928 28.3035 5.78419 30.1147 5.86278C31.5495 5.89012 32.9691 6.16237 34.3122 6.66778C36.6282 7.56612 38.4596 9.39687 39.3588 11.7124C39.8708 13.0717 40.1438 14.5093 40.1657 15.9617C40.2731 17.7979 40.2731 18.3978 40.2731 23.0744C40.2731 27.7511 40.2462 28.3644 40.1657 30.1795C40.1372 31.6136 39.865 33.0323 39.3607 34.3751C38.4593 36.6899 36.6277 38.5201 34.3122 39.4198C32.971 39.9223 31.5544 40.1939 30.1224 40.2229C28.292 40.3283 27.6921 40.3283 23.0039 40.3283ZM22.9387 8.79336C18.2506 8.79336 17.7637 8.81636 15.9333 8.89878C14.8408 8.91325 13.7588 9.11486 12.7344 9.49486C11.2217 10.0737 10.0247 11.2658 9.43966 12.7762C9.05673 13.8118 8.85509 14.9056 8.84357 16.0096C8.74199 17.8669 8.74199 18.3537 8.74199 23.0093C8.74199 27.6093 8.75924 28.167 8.84357 30.0128C8.86073 31.1057 9.06226 32.1878 9.43966 33.2136C10.0255 34.723 11.2223 35.9142 12.7344 36.493C13.7581 36.8756 14.8405 37.0772 15.9333 37.0891C17.7887 37.1964 18.2774 37.1964 22.9387 37.1964C27.6403 37.1964 28.1272 37.1734 29.9422 37.0891C31.0355 37.0758 32.1183 36.8742 33.1431 36.493C34.6466 35.9092 35.8358 34.7207 36.4206 33.2174C36.8028 32.181 37.0044 31.0867 37.0167 29.9821H37.0377C37.1202 28.1498 37.1202 27.661 37.1202 22.9786C37.1202 18.2962 37.0991 17.8036 37.0167 15.9732C36.9995 14.8816 36.7979 13.8007 36.4206 12.7762C35.8372 11.2708 34.6478 10.08 33.1431 9.49486C32.1185 9.11295 31.0356 8.91128 29.9422 8.89878C28.0888 8.79336 27.6039 8.79336 22.9387 8.79336ZM23.0039 31.8624C19.4197 31.8647 16.1871 29.7075 14.8137 26.3969C13.4403 23.0863 14.1966 19.2743 16.7299 16.7388C19.2633 14.2033 23.0746 13.4437 26.3864 14.8142C29.6982 16.1848 31.8581 19.4155 31.8589 22.9997C31.8536 27.8892 27.8934 31.8529 23.0039 31.8624ZM23.0039 17.2459C19.8283 17.2459 17.2539 19.8202 17.2539 22.9959C17.2539 26.1715 19.8283 28.7459 23.0039 28.7459C26.1795 28.7459 28.7539 26.1715 28.7539 22.9959C28.7465 19.8233 26.1765 17.2532 23.0039 17.2459ZM32.2039 15.8793C31.0643 15.875 30.1433 14.9489 30.1454 13.8093C30.1475 12.6697 31.072 11.747 32.2116 11.747C33.3512 11.747 34.2756 12.6697 34.2777 13.8093C34.2782 14.3591 34.0598 14.8865 33.6707 15.2749C33.2815 15.6633 32.7537 15.8808 32.2039 15.8793Z" fill="white"/>
</svg>
