<svg width="149" height="149" viewBox="0 0 149 149" fill="none" xmlns="http://www.w3.org/2000/svg">
<path d="M74.4996 8.27783C61.4021 8.27783 48.5987 12.1617 37.7085 19.4383C26.8183 26.7149 18.3304 37.0574 13.3182 49.1579C8.30604 61.2584 6.99462 74.5735 9.54982 87.4194C12.105 100.265 18.4121 112.065 27.6734 121.326C36.9348 130.588 48.7344 136.895 61.5803 139.45C74.4261 142.005 87.7412 140.694 99.8418 135.681C111.942 130.669 122.285 122.181 129.561 111.291C136.838 100.401 140.722 87.5976 140.722 74.5001C140.722 56.9368 133.745 40.093 121.326 27.6739C108.907 15.2548 92.0628 8.27783 74.4996 8.27783V8.27783ZM74.4996 132.445C63.0393 132.445 51.8363 129.046 42.3074 122.679C32.7785 116.312 25.3516 107.262 20.9659 96.6744C16.5802 86.0865 15.4327 74.4358 17.6685 63.1957C19.9043 51.9555 25.423 41.6308 33.5267 33.5271C41.6304 25.4235 51.9551 19.9048 63.1952 17.669C74.4353 15.4332 86.086 16.5807 96.674 20.9664C107.262 25.352 116.312 32.7789 122.679 42.3078C129.046 51.8368 132.444 63.0397 132.444 74.5001C132.444 89.8679 126.339 104.606 115.473 115.473C104.606 126.34 89.8674 132.445 74.4996 132.445Z" fill="#89D66D"/>
<path d="M115.888 50.08C115.113 49.3092 114.064 48.8765 112.97 48.8765C111.877 48.8765 110.828 49.3092 110.052 50.08L64.1108 95.8147L39.2775 70.9814C38.5201 70.1636 37.4688 69.6802 36.355 69.6375C35.2411 69.5948 34.156 69.9964 33.3382 70.7538C32.5204 71.5112 32.037 72.5624 31.9943 73.6763C31.9516 74.7901 32.3531 75.8753 33.1105 76.6931L64.1108 107.611L115.888 55.9572C116.276 55.5725 116.584 55.1147 116.794 54.6104C117.004 54.106 117.113 53.565 117.113 53.0186C117.113 52.4723 117.004 51.9313 116.794 51.4269C116.584 50.9226 116.276 50.4648 115.888 50.08Z" fill="#89D66D"/>
</svg>
