<svg width="37" height="37" viewBox="0 0 37 37" fill="none" xmlns="http://www.w3.org/2000/svg">
<path d="M18.5003 6.16675C16.061 6.16675 13.6765 6.89009 11.6483 8.24529C9.62009 9.60049 8.0393 11.5267 7.10582 13.7803C6.17234 16.0339 5.92809 18.5138 6.40398 20.9062C6.87986 23.2986 8.0545 25.4962 9.77935 27.2211C11.5042 28.9459 13.7018 30.1205 16.0942 30.5964C18.4867 31.0723 20.9665 30.8281 23.2201 29.8946C25.4737 28.9611 27.3999 27.3803 28.7551 25.3521C30.1103 23.3239 30.8337 20.9394 30.8337 18.5001C30.8337 15.2291 29.5343 12.092 27.2213 9.7791C24.9084 7.46615 21.7713 6.16675 18.5003 6.16675V6.16675ZM16.9689 12.3334C16.9689 11.9245 17.1314 11.5324 17.4205 11.2433C17.7096 10.9542 18.1017 10.7917 18.5106 10.7917C18.9195 10.7917 19.3116 10.9542 19.6007 11.2433C19.8899 11.5324 20.0523 11.9245 20.0523 12.3334V19.4148C20.0523 19.6173 20.0124 19.8177 19.9349 20.0048C19.8574 20.1918 19.7439 20.3618 19.6007 20.5049C19.4576 20.6481 19.2876 20.7616 19.1006 20.8391C18.9135 20.9166 18.7131 20.9565 18.5106 20.9565C18.3082 20.9565 18.1077 20.9166 17.9206 20.8391C17.7336 20.7616 17.5636 20.6481 17.4205 20.5049C17.2773 20.3618 17.1638 20.1918 17.0863 20.0048C17.0088 19.8177 16.9689 19.6173 16.9689 19.4148V12.3334ZM18.5003 26.2084C18.1507 26.2084 17.8089 26.1047 17.5182 25.9105C17.2275 25.7162 17.0009 25.4402 16.8671 25.1171C16.7333 24.7941 16.6983 24.4387 16.7665 24.0958C16.8347 23.7528 17.0031 23.4379 17.2503 23.1906C17.4976 22.9434 17.8125 22.775 18.1555 22.7068C18.4984 22.6386 18.8538 22.6736 19.1768 22.8074C19.4998 22.9412 19.7759 23.1678 19.9702 23.4585C20.1644 23.7492 20.2681 24.091 20.2681 24.4406C20.2681 24.9095 20.0819 25.3591 19.7503 25.6906C19.4188 26.0222 18.9692 26.2084 18.5003 26.2084Z" fill="#AC1B2C"/>
</svg>
