<svg width="23" height="24" viewBox="0 0 23 24" fill="none" xmlns="http://www.w3.org/2000/svg">
<g clip-path="url(#clip0)">
<path d="M6.07936 20.5551L6.45536 20.7491C8.02224 21.7186 9.77697 22.1711 11.5318 22.1711C17.0469 22.1711 21.5592 17.5171 21.5592 11.829C21.5592 9.11418 20.4937 6.46399 18.6136 4.52481C16.7335 2.58563 14.2266 1.48682 11.5318 1.48682C6.01674 1.48682 1.50434 6.14078 1.56705 11.8936C1.56705 13.8327 2.13109 15.7073 3.07113 17.3232L3.32179 17.7111L2.31913 21.5248L6.07936 20.5551Z" fill="#00E676"/>
<path d="M19.6787 3.49047C17.5479 1.22817 14.6024 0 11.5942 0C5.20177 0 0.0627109 5.36497 0.125332 11.8934C0.125332 13.9619 0.689371 15.9657 1.6295 17.7756L0 23.9162L6.0791 22.3003C7.77121 23.2699 9.65129 23.7224 11.5315 23.7224C17.8613 23.7224 23.0004 18.3573 23.0004 11.8289C23.0004 8.66159 21.8096 5.68818 19.6788 3.49047H19.6787ZM11.5942 21.7186C9.90204 21.7186 8.20992 21.2662 6.76847 20.3613L6.39247 20.1673L2.75757 21.1369L3.69761 17.4525L3.44695 17.0646C0.689371 12.4754 2.00549 6.3992 6.5178 3.55506C11.0301 0.711012 16.8586 2.06845 19.6161 6.72241C22.3736 11.3764 21.0575 17.3878 16.5453 20.2319C15.1037 21.2014 13.349 21.7185 11.5942 21.7185V21.7186ZM17.1092 14.5438L16.4198 14.2206C16.4198 14.2206 15.4172 13.7681 14.7904 13.4449C14.7277 13.4449 14.6651 13.3802 14.6024 13.3802C14.4144 13.3802 14.289 13.4449 14.1637 13.5096C14.1637 13.5096 14.1011 13.5742 13.2237 14.6084C13.1609 14.7377 13.0356 14.8023 12.9103 14.8023H12.8476C12.7849 14.8023 12.6596 14.7377 12.5969 14.6731L12.2835 14.5438C11.5942 14.2206 10.9675 13.8327 10.4661 13.3156C10.3407 13.1864 10.1527 13.0571 10.0274 12.9278C9.58866 12.4754 9.14996 11.9582 8.83667 11.3765L8.77396 11.2472C8.71134 11.1825 8.71134 11.1179 8.64863 10.9887C8.64863 10.8594 8.64863 10.7301 8.71134 10.6655C8.71134 10.6655 8.962 10.3422 9.14996 10.1484C9.27538 10.019 9.338 9.82517 9.46333 9.69591C9.58866 9.50196 9.65137 9.24343 9.58866 9.04948C9.52604 8.72627 8.77396 6.98103 8.58601 6.59324C8.46059 6.39929 8.33534 6.3347 8.1473 6.27002H7.45793C7.33251 6.27002 7.20727 6.3347 7.08184 6.3347L7.01913 6.39929C6.8938 6.46397 6.76847 6.59323 6.64314 6.65782C6.5178 6.78718 6.45509 6.91636 6.32976 7.04571C5.89105 7.62746 5.64039 8.33847 5.64039 9.04948C5.64039 9.56655 5.76572 10.0837 5.95377 10.5362L6.01648 10.7301C6.58052 11.9582 7.33251 13.0571 8.33534 14.0267L8.58601 14.2852C8.77396 14.4791 8.962 14.6084 9.08734 14.8023C10.4035 15.9658 11.9075 16.8061 13.5996 17.2586C13.7877 17.3232 14.0384 17.3232 14.2264 17.3879H14.8531C15.1664 17.3879 15.5424 17.2586 15.7932 17.1293C15.9811 17.0001 16.1065 17.0001 16.2318 16.8708L16.3572 16.7414C16.4826 16.6122 16.6079 16.5476 16.7332 16.4183C16.8586 16.289 16.9839 16.1598 17.0466 16.0304C17.1719 15.7719 17.2345 15.4487 17.2973 15.1256V14.6731C17.2973 14.6731 17.2345 14.6084 17.1092 14.5438V14.5438Z" fill="white"/>
</g>
<defs>
<clipPath id="clip0">
<rect width="23" height="24" fill="white"/>
</clipPath>
</defs>
</svg>
